<?xml version="1.0" encoding="UTF-8" standalone="no"?>
<!-- Created with Inkscape (http://www.inkscape.org/) -->

<svg
   xmlns:dc="http://purl.org/dc/elements/1.1/"
   xmlns:cc="http://creativecommons.org/ns#"
   xmlns:rdf="http://www.w3.org/1999/02/22-rdf-syntax-ns#"
   xmlns:svg="http://www.w3.org/2000/svg"
   xmlns="http://www.w3.org/2000/svg"
   xmlns:sodipodi="http://sodipodi.sourceforge.net/DTD/sodipodi-0.dtd"
   xmlns:inkscape="http://www.inkscape.org/namespaces/inkscape"
   width="256"
   height="349"
   viewBox="0 0 67.733331 92.339589"
   version="1.1"
   id="svg8"
   inkscape:version="0.92.5 (2060ec1f9f, 2020-04-08)"
   sodipodi:docname="boot-splash.svg"
   inkscape:export-filename="/tmp/boot-splash.png"
   inkscape:export-xdpi="96"
   inkscape:export-ydpi="96">
  <defs
     id="defs2" />
  <sodipodi:namedview
     id="base"
     pagecolor="#ffffff"
     bordercolor="#666666"
     borderopacity="1.0"
     inkscape:pageopacity="0.0"
     inkscape:pageshadow="2"
     inkscape:zoom="0.9899495"
     inkscape:cx="-112.64954"
     inkscape:cy="207.36766"
     inkscape:document-units="mm"
     inkscape:current-layer="layer1"
     showgrid="false"
     units="px"
     inkscape:window-width="1920"
     inkscape:window-height="948"
     inkscape:window-x="0"
     inkscape:window-y="27"
     inkscape:window-maximized="1"
     inkscape:pagecheckerboard="true"
     fit-margin-top="0"
     fit-margin-left="0"
     fit-margin-right="0"
     fit-margin-bottom="0" />
  <metadata
     id="metadata5">
    <rdf:RDF>
      <cc:Work
         rdf:about="">
        <dc:format>image/svg+xml</dc:format>
        <dc:type
           rdf:resource="http://purl.org/dc/dcmitype/StillImage" />
        <dc:title></dc:title>
      </cc:Work>
    </rdf:RDF>
  </metadata>
  <g
     inkscape:label="Layer 1"
     inkscape:groupmode="layer"
     id="layer1"
     transform="translate(-18.258489,-197.57586)"
     style="display:inline;opacity:1">
    <rect
       style="fill:#43c78a;fill-opacity:1;stroke-width:0.59206897"
       id="rect5271"
       width="53.585655"
       height="86.691933"
       x="21.798557"
       y="200.29942" />
    <path
       style="opacity:1;fill:#1b1b1b;fill-opacity:1;stroke-width:0.27632934"
       d="m 21.13216,198.93189 c -1.181846,0.81369 -2.020474,1.83812 -2.336514,2.86158 -0.316037,1.02346 -0.390868,2.68826 -0.390868,3.23305 0,0.75364 0.0011,29.23895 0,39.27648 -0.0011,10.03753 0.01104,37.85544 0,38.98611 -0.0083,0.84685 0.04259,1.35672 0.164551,1.93559 0.536625,1.84197 0.940964,2.45451 1.410056,3.01346 0.469091,0.55894 1.825434,1.60132 3.301436,1.6545 1.476002,0.0532 18.229844,-0.004 29.531506,0 16.451577,0.009 24.406816,0 28.172331,0 1.211255,0 2.527241,-0.60091 3.337933,-1.43255 0.810717,-0.83164 1.082474,-1.20835 1.331483,-3.23541 0.0745,-0.60627 0.20765,-1.35363 0.21059,-1.93559 v -25.80807 c 0,0 -0.905558,-0.67061 -1.558152,-1.22258 -0.652596,-0.55196 -1.502436,-1.44789 -2.155083,-2.22579 -0.652645,-0.77789 -0.742591,-1.28442 -0.683139,-3.68391 0.09297,-3.75268 -0.349271,-4.40595 3.053847,-4.32909 1.197639,0.0271 1.342527,-0.56378 1.342527,-1.06243 v -7.76856 l -3.561754,-3.55427 c -2.009883,-1.95502 -4.230349,-3.92455 -4.459686,-4.3766 -0.197543,-0.38937 0.01894,-1.6202 -0.03575,-3.41706 -0.0547,-1.79685 0,-19.55901 0,-20.81423 0,-1.25522 0.01932,-2.42798 -0.319908,-3.23305 -0.339224,-0.80509 -1.090323,-2.23259 -2.123599,-2.86158 -1.033277,-0.62898 -4.989035,-1.35605 -6.707739,-1.35605 H 48.615518 27.705735 c -1.96253,0 -5.391728,0.54235 -6.573575,1.35605 z m 47.125625,7.38515 c 0.523823,0 1.849492,5.41756 1.81613,5.55179 -0.03339,0.13411 -1.086593,0 -1.81613,0 -0.729531,0 -1.735176,0.14281 -1.816123,0 -0.08096,-0.14282 1.292306,-5.55179 1.816123,-5.55179 z m 2.469085,26.97267 c 0.637077,0 2.530573,0.63838 3.03271,1.02237 0.228136,0.17463 0.218371,0.20272 -0.27168,0.78717 -0.669847,0.79879 -1.504366,2.60454 -2.705771,5.85738 -0.791577,2.14324 -2.97745,8.59964 -2.97745,8.79396 0,0.0261 0.539631,0.0482 1.199086,0.0482 1.749199,1.1e-4 2.243448,0.36371 2.243448,1.64748 v 0.58435 l -1.25987,-0.0453 c -0.896731,-0.0324 -1.930173,0.0469 -3.579753,0.27505 -2.622317,0.36293 -3.097904,0.37791 -3.921434,0.12322 -0.534625,-0.16524 -1.445903,-0.89271 -1.445903,-1.15388 0,-0.13325 1.550737,-0.55235 3.043761,-0.82329 l 1.136461,-0.20661 0.116031,-0.44822 c 0.06384,-0.24646 0.206579,-0.80998 0.316809,-1.25204 0.4266,-1.71072 1.932178,-6.83394 2.574071,-8.75968 0.5399,-1.61977 0.631625,-2.00539 0.463241,-1.94197 -0.422533,0.15917 -1.518502,0.87615 -2.31344,1.51319 -0.448463,0.35938 -0.863975,0.62242 -0.92372,0.58528 -0.256421,-0.15936 -0.07338,-0.70555 0.461398,-1.37707 0.313553,-0.39371 1.355222,-1.52254 2.315285,-2.50872 0.960069,-0.98615 1.870158,-2.00178 2.02242,-2.25684 0.152277,-0.25502 0.365764,-0.46394 0.474291,-0.46394 z m -46.483426,0.69454 h 15.625868 c 2.094086,0 3.779602,1.69487 3.779602,3.80059 H 26.064175 Z m 25.366823,0 h 9.521766 v 3.80059 H 45.82974 c 0,-2.10573 1.686437,-3.80059 3.780527,-3.80059 z m -23.546092,6.13801 h 3.779606 v 11.59252 h -3.779606 z m 6.902565,0 h 3.779607 v 11.59252 H 32.96674 Z m 6.902572,0 h 3.779602 v 11.59252 h -3.779602 z m 5.960428,0 h 3.780527 v 6.42227 c 0,0.80482 0.410243,1.36966 1.365775,1.36966 h 8.155991 v 3.80059 h -9.521766 c -2.094094,0 -3.780527,-1.69489 -3.780527,-3.80059 z"
       id="path4603"
       inkscape:connector-curvature="0"
       sodipodi:nodetypes="zzsssczzcszscczzcsscccszzzzsszsscsssccscsccccsccccsccccccscscccscccsccccccccccccccccccsccsscsc" />
    <g
       transform="matrix(0.36343351,0,0,0.3634632,28.40951,186.65453)"
       id="g1222-7-0-1-4-6-5-5-9-2"
       style="fill:#43c78a;fill-opacity:1;stroke-width:0.70555556;stroke-miterlimit:4;stroke-dasharray:none"
       inkscape:export-filename="/tmp/mrisc-logo.png"
       inkscape:export-xdpi="191.3"
       inkscape:export-ydpi="191.3" />
    <path
       style="fill:none;fill-opacity:1;stroke:#000000;stroke-width:1.44431341;stroke-linecap:round;stroke-linejoin:miter;stroke-miterlimit:4;stroke-dasharray:none;stroke-opacity:1"
       d="m 18.990748,282.86827 c 0,0 17.396838,-3.33619 33.13454,-3.09521 15.737701,0.241 33.13434,3.09521 33.13434,3.09521"
       id="path828"
       inkscape:connector-curvature="0"
       sodipodi:nodetypes="czc" />
  </g>
</svg>
